<?xml version="1.0" encoding="utf-8"?>
<!-- Generator: Adobe Illustrator 20.1.0, SVG Export Plug-In . SVG Version: 6.00 Build 0)  -->
<svg version="1.1" id="Layer_1" xmlns="http://www.w3.org/2000/svg" xmlns:xlink="http://www.w3.org/1999/xlink" x="0px" y="0px"
	 viewBox="0 0 54.3 24.4" style="enable-background:new 0 0 54.3 24.4;" xml:space="preserve">
<style type="text/css">
	.st0{fill:#EA1C4F;}
</style>
<g id="Layer_2">
	<g id="Layer_3">
		<path class="st0" d="M53.9,7.8H26c-3.1,0-5.8,2.3-6.1,5.4c-0.4,3.9-3.8,6.8-7.7,6.7c-4.3,0-7.8-3.5-7.8-7.8s3.5-7.8,7.8-7.8l0,0
			c2.7,0,5.2,1.4,6.6,3.7c0.1,0.1,0.3,0.2,0.5,0.1c0,0,0.1,0,0.1-0.1c0.8-0.9,1.8-1.6,2.9-2.1c0.2-0.1,0.2-0.3,0.2-0.4
			c0,0,0,0,0-0.1C20.1,2.1,16.3,0,12.2,0l0,0C5.5,0,0,5.5,0,12.2s5.5,12.2,12.2,12.2c6.2,0.1,11.4-4.5,12.1-10.6
			c0.1-0.9,0.8-1.5,1.7-1.5h23.8v3.3c0.1,1.2-0.2,2.4-0.8,3.5c-0.7,1-2.2,1.3-3.3,0.5c-0.2-0.1-0.4-0.3-0.5-0.5
			c-0.6-1-0.9-2.2-0.9-3.5v-0.8c0-0.2-0.1-0.3-0.3-0.3l0,0h-3.8c-0.2,0-0.3,0.1-0.3,0.3v0v0.8c0.1,1.2-0.2,2.4-0.9,3.5
			c-0.7,1-2.2,1.3-3.3,0.5c-0.2-0.1-0.4-0.3-0.5-0.5c-0.6-1-0.9-2.2-0.9-3.5v-0.8c0-0.2-0.1-0.3-0.3-0.3l0,0h-3.8
			c-0.2,0-0.3,0.1-0.3,0.3v0.8c0,5.3,2.9,8.8,7.2,8.8c1.9,0,3.7-0.8,5-2.2c1.3,1.4,3.1,2.2,5,2.2c4.3,0,7.2-3.6,7.2-8.9V8.1
			C54.3,7.9,54.1,7.8,53.9,7.8L53.9,7.8"/>
	</g>
</g>
</svg>
